# xmcd CD database file
#
# Track frame offsets:
#	150
#	9799
#	19964
#	46098
#	53170
#	82631
#	112778
#	129606
#	169951
#	197542
#
# Disc length: 3003 seconds
#
# Revision: 0
# Processed by: cddbd v1.5.2PL0 Copyright (c) Steve Scherf et al.
# Submitted via: CDex 1.51
#
DISCID=6a0bb90a
DTITLE=Fabian Gisler - Backyard Poets
DYEAR=2005
DGENRE=Jazz
TTITLE0=Poetry From Neverland A
TTITLE1=Poetry From Neverland B
TTITLE2=The Inner Storm
TTITLE3=Sham King
TTITLE4=Sans un mot
TTITLE5=Fields Of Darkness
TTITLE6=A New Life
TTITLE7=Starsky's Delight
TTITLE8=Freedom Speech
TTITLE9=Neues Stück
EXTD=YEAR: 2005
EXTT0=
EXTT1=
EXTT2=
EXTT3=
EXTT4=
EXTT5=
EXTT6=
EXTT7=
EXTT8=
EXTT9=
PLAYORDER=
